<svg width="338" height="2293" viewBox="0 0 338 2293" fill="none" xmlns="http://www.w3.org/2000/svg">
<path d="M108.849 1375.46L108.835 1370.46L108.849 1375.46ZM283.115 1374.95L283.13 1379.95L283.115 1374.95ZM-1.28894 10H282.969V0H-1.28894V10ZM327.969 55V412.402H337.969V55H327.969ZM282.969 457.402H108.964V467.402H282.969V457.402ZM53.9644 512.402V868.2H63.9644V512.402H53.9644ZM108.964 923.2H282.969V913.2H108.964V923.2ZM327.969 968.2V1324.95H337.969V968.2H327.969ZM283.101 1369.95L108.835 1370.46L108.864 1380.46L283.13 1379.95L283.101 1369.95ZM53.9956 1425.46V1781.4H63.9956V1425.46H53.9956ZM108.996 1836.4H283V1826.4H108.996V1836.4ZM328 1881.4V2238H338V1881.4H328ZM283 2283H-16V2293H283V2283ZM328 2238C328 2262.85 307.853 2283 283 2283V2293C313.376 2293 338 2268.38 338 2238H328ZM283 1836.4C307.853 1836.4 328 1856.55 328 1881.4H338C338 1851.02 313.376 1826.4 283 1826.4V1836.4ZM53.9956 1781.4C53.9956 1811.78 78.6199 1836.4 108.996 1836.4V1826.4C84.1428 1826.4 63.9956 1806.25 63.9956 1781.4H53.9956ZM108.835 1370.46C78.5219 1370.54 53.9956 1395.14 53.9956 1425.46H63.9956C63.9956 1400.65 84.0626 1380.53 108.864 1380.46L108.835 1370.46ZM327.969 1324.95C327.969 1349.75 307.902 1369.87 283.101 1369.95L283.13 1379.95C313.443 1379.86 337.969 1355.26 337.969 1324.95H327.969ZM282.969 923.2C307.822 923.2 327.969 943.347 327.969 968.2H337.969C337.969 937.824 313.345 913.2 282.969 913.2V923.2ZM53.9644 868.2C53.9644 898.576 78.5888 923.2 108.964 923.2V913.2C84.1116 913.2 63.9644 893.053 63.9644 868.2H53.9644ZM108.964 457.402C78.5887 457.402 53.9644 482.026 53.9644 512.402H63.9644C63.9644 487.549 84.1116 467.402 108.964 467.402V457.402ZM327.969 412.402C327.969 437.255 307.822 457.402 282.969 457.402V467.402C313.345 467.402 337.969 442.777 337.969 412.402H327.969ZM282.969 10C307.822 10 327.969 30.1472 327.969 55H337.969C337.969 24.6243 313.345 0 282.969 0V10Z" fill="#334675" fill-opacity="0.3"/>
</svg>
