<svg width="698" height="2681" viewBox="0 0 698 2681" fill="none" xmlns="http://www.w3.org/2000/svg">
<path d="M0 5H642.938C670.552 5 692.938 27.3858 692.938 55V490.138C692.938 517.752 670.552 540.138 642.938 540.138H198.855C171.241 540.138 148.855 562.524 148.855 590.138V1023.4C148.855 1051.01 171.241 1073.4 198.855 1073.4H642.938C670.553 1073.4 692.938 1095.79 692.938 1123.4V1557.69C692.938 1585.27 670.605 1607.64 643.024 1607.69L198.831 1608.45C171.25 1608.5 148.917 1630.87 148.917 1658.45V2091.8C148.917 2119.41 171.302 2141.8 198.917 2141.8H643C670.614 2141.8 693 2164.19 693 2191.8V2626C693 2653.61 670.614 2676 643 2676H0" stroke="#334675" stroke-opacity="0.3" stroke-width="10"/>
</svg>
