<svg width="1632" height="2863" viewBox="0 0 1632 2863" fill="none" xmlns="http://www.w3.org/2000/svg">
<path d="M-1 8H1573.59C1601.2 8 1623.59 30.3858 1623.59 58V528.5C1623.59 556.114 1601.2 578.5 1573.59 578.5H341.849C314.234 578.5 291.849 600.886 291.849 628.5V1097C291.849 1124.61 314.234 1147 341.849 1147H1573.59C1601.2 1147 1623.59 1169.39 1623.59 1197V1666.54C1623.59 1694.14 1601.23 1716.52 1573.63 1716.54L341.962 1717.46C314.363 1717.48 292 1739.86 292 1767.46V2236C292 2263.61 314.386 2286 342 2286H1573.74C1601.35 2286 1623.74 2308.39 1623.74 2336V2805.5C1623.74 2833.11 1601.35 2855.5 1573.74 2855.5H-72.5" stroke="#334675" stroke-opacity="0.3" stroke-width="15"/>
</svg>
